<?xml version="1.0"?><svg width="2268.8" height="1780" xmlns="http://www.w3.org/2000/svg">
 <title>Xbox Controller</title>
 <metadata id="metadata7">image/svg+xml</metadata>
 <g>
  <title>Layer 1</title>
  <path d="m461.03125,250.5625c-16.899048,0.381973 -34.287476,5.109619 -52.21875,14.4375c-19.226135,33.678528 -31.196289,67.352722 -43.375,101.03125c-82.594818,10.970947 -161.70816,47.084442 -246.625,103.96875c-9.168343,9.168335 -12.726936,29.53775 -10.6875,48.5625c-15.805779,16.146973 -26.300507,33.365601 -29.3125,51.4375c-45.825901,171.767212 -71.26462,346.099182 -68.625,500.5625c-4.24904,250.776245 70.415298,442.446655 261.625,497.5c2.309692,0.665039 4.65625,1.3125 7,1.9375c0.786957,0.196655 1.572296,0.380493 2.375,0.53125c0.472321,0.088623 0.959595,0.145752 1.4375,0.21875c0.516357,0.078735 1.03949,0.158081 1.5625,0.21875c0.448029,0.052002 0.890747,0.086182 1.34375,0.125c0.273041,0.023438 0.537598,0.075073 0.8125,0.09375c0.062958,0.004272 0.124451,-0.004028 0.1875,0c0.216766,0.013916 0.438324,0.020264 0.65625,0.03125c0.453339,0.022827 0.916626,0.052124 1.375,0.0625c0.1362,0.003052 0.269623,-0.001953 0.40625,0c0.878143,0.012695 1.759186,0.00061 2.65625,-0.03125c0.010345,-0.000366 0.020905,0.000366 0.03125,0c0.010223,-0.000366 0.021027,0.000366 0.03125,0c0.862793,-0.031738 1.744202,-0.084229 2.625,-0.15625c0.031097,-0.002563 0.062622,0.002563 0.09375,0c0.134277,-0.011108 0.271515,-0.019165 0.40625,-0.03125c0.782837,-0.070557 1.577576,-0.17981 2.375,-0.28125c0.646149,-0.082397 1.312836,-0.178955 1.96875,-0.28125c0.682404,-0.106445 1.369293,-0.216064 2.0625,-0.34375c0.052368,-0.009644 0.103821,-0.021484 0.15625,-0.03125c0.530396,-0.098755 1.056915,-0.201538 1.59375,-0.3125c0.214386,-0.044312 0.440826,-0.078735 0.65625,-0.125c0.985779,-0.212036 1.992188,-0.467041 3,-0.71875c0.545013,-0.136108 1.104645,-0.258789 1.65625,-0.40625c0.248962,-0.06665 0.499695,-0.14978 0.75,-0.21875c0.535736,-0.147583 1.083008,-0.310791 1.625,-0.46875c0.492828,-0.143799 1.001953,-0.285156 1.5,-0.4375c0.052826,-0.016235 0.103363,-0.046265 0.15625,-0.0625c0.707886,-0.217529 1.437653,-0.453003 2.15625,-0.6875c0.28833,-0.094116 0.5849,-0.184448 0.875,-0.28125c0.893616,-0.298218 1.80835,-0.614014 2.71875,-0.9375c0.181976,-0.064697 0.379852,-0.121826 0.5625,-0.1875c1.191437,-0.428345 2.404236,-0.873901 3.625,-1.34375c0.854919,-0.329102 1.724152,-0.682251 2.59375,-1.03125c0.17569,-0.070557 0.35495,-0.147461 0.53125,-0.21875c1.050476,-0.425049 2.115265,-0.859497 3.1875,-1.3125c0.100891,-0.042603 0.211426,-0.082153 0.3125,-0.125c1.701324,-0.721558 3.461334,-1.492065 5.21875,-2.28125c0.665741,-0.299072 1.357269,-0.629028 2.03125,-0.9375c1.212646,-0.555054 2.447784,-1.102783 3.6875,-1.6875c0.02066,-0.009766 0.04184,-0.021484 0.0625,-0.03125c2.511963,-1.185547 5.092285,-2.448242 7.71875,-3.75c2.615295,-1.296143 5.297791,-2.658569 8.03125,-4.0625c0.020782,-0.010742 0.041718,-0.02063 0.0625,-0.03125c0.811829,-0.416992 1.67749,-0.855103 2.5,-1.28125c1.961182,-1.016235 3.94574,-2.059204 5.96875,-3.125c0.185089,-0.097534 0.376892,-0.2146 0.5625,-0.3125c1.117493,-0.589478 2.269562,-1.20874 3.40625,-1.8125c1.119843,-0.594849 2.236267,-1.172974 3.375,-1.78125c0.483673,-0.258301 1.012909,-0.551758 1.5,-0.8125c4.072815,-2.180298 8.461517,-4.539551 12.78125,-6.875c1.974731,-1.067749 4.096954,-2.215332 6.125,-3.3125c6.573792,-3.55603 13.435455,-7.238525 20.59375,-11.0625c2.919006,-1.559326 5.916901,-3.184692 8.9375,-4.78125c1.463226,-0.773438 2.949982,-1.531006 4.4375,-2.3125c2.953522,-1.551758 5.949036,-3.138306 9,-4.71875c2.90451,-1.504395 5.911438,-3.035278 8.90625,-4.5625c0.960968,-0.48999 1.967102,-0.976563 2.9375,-1.46875c0.074615,-0.037842 0.144073,-0.087158 0.21875,-0.125c3.737061,-1.894653 7.558411,-3.796631 11.4375,-5.71875c0.451935,-0.223999 0.889862,-0.463257 1.34375,-0.6875c2.709564,-1.338623 5.501282,-2.682007 8.28125,-4.03125c1.628571,-0.790405 3.221924,-1.581543 4.875,-2.375c0.923401,-0.443237 1.881378,-0.899658 2.8125,-1.34375c3.261047,-1.555298 6.518219,-3.092529 9.875,-4.65625c2.710663,-1.262695 5.47583,-2.546143 8.25,-3.8125c1.880524,-0.858521 3.808655,-1.734253 5.71875,-2.59375c0.718933,-0.323486 1.464355,-0.645142 2.1875,-0.96875c1.579529,-0.706909 3.150238,-1.417847 4.75,-2.125c2.572144,-1.136841 5.156219,-2.238281 7.78125,-3.375c1.492798,-0.646484 2.989929,-1.322632 4.5,-1.96875c1.758179,-0.752197 3.530701,-1.498535 5.3125,-2.25c1.689392,-0.712524 3.382935,-1.413452 5.09375,-2.125c3.010925,-1.252075 6.078247,-2.533447 9.15625,-3.78125c1.880127,-0.762207 3.813293,-1.489868 5.71875,-2.25c1.779297,-0.709717 3.573425,-1.44873 5.375,-2.15625c0.866882,-0.340454 1.72168,-0.660034 2.59375,-1c0.30603,-0.119263 0.599609,-0.255737 0.90625,-0.375c3.826416,-1.487671 7.698059,-2.962158 11.625,-4.4375c1.626038,-0.61084 3.294006,-1.235229 4.9375,-1.84375c2.069519,-0.766113 4.152649,-1.550659 6.25,-2.3125c0.7099,-0.257935 1.411926,-0.492554 2.125,-0.75c2.907043,-1.049194 5.851746,-2.084961 8.8125,-3.125c2.563843,-0.900635 5.145447,-1.794434 7.75,-2.6875c0.924988,-0.317261 1.851135,-0.652588 2.78125,-0.96875c4.757996,-1.61731 9.605286,-3.223999 14.5,-4.8125c0.540405,-0.175293 1.082947,-0.356201 1.625,-0.53125c0.104065,-0.033569 0.208374,-0.060181 0.3125,-0.09375c25.850403,12.198975 54.724121,19.03125 85.1875,19.03125c60.53418,0 114.814697,-26.933838 151.5,-69.46875c3.258423,-0.381226 6.516846,-0.762207 9.8125,-1.125c0.299927,-0.033081 0.606018,-0.060791 0.90625,-0.09375c3.096252,-0.338867 6.214478,-0.677856 9.34375,-1c0.331726,-0.03418 0.667908,-0.059814 1,-0.09375c0.529236,-0.054199 1.063599,-0.102661 1.59375,-0.15625c6.012573,-0.608276 12.114868,-1.204956 18.25,-1.75c0.75647,-0.067261 1.522949,-0.121338 2.28125,-0.1875c0.747253,-0.065186 1.500916,-0.123169 2.25,-0.1875c2.690308,-0.230835 5.379822,-0.469238 8.09375,-0.6875c2.541931,-0.20459 5.093506,-0.400269 7.65625,-0.59375c0.665771,-0.050293 1.332825,-0.075562 2,-0.125c2.274353,-0.168701 4.552979,-0.34021 6.84375,-0.5c1.384827,-0.09668 2.765381,-0.187988 4.15625,-0.28125c2.157654,-0.144775 4.32782,-0.300659 6.5,-0.4375c3.006226,-0.189453 6.02832,-0.3573 9.0625,-0.53125c1.785583,-0.102295 3.579712,-0.215576 5.375,-0.3125c0.849548,-0.045898 1.710815,-0.080322 2.5625,-0.125c2.877319,-0.150879 5.753906,-0.300781 8.65625,-0.4375c3.761414,-0.177246 7.57135,-0.346802 11.375,-0.5c2.642944,-0.106445 5.305298,-0.217773 7.96875,-0.3125c0.372375,-0.013306 0.752197,-0.018311 1.125,-0.03125c3.697327,-0.129028 7.41925,-0.237793 11.15625,-0.34375c4.11377,-0.116699 8.24408,-0.224243 12.40625,-0.3125c4.16217,-0.088257 8.351624,-0.159302 12.5625,-0.21875c0.477173,-0.006714 0.959717,-0.024902 1.4375,-0.03125c2.360229,-0.031372 4.749512,-0.040405 7.125,-0.0625c5.623779,-0.05249 11.289551,-0.09375 17,-0.09375c3.760376,0 7.49585,0.008423 11.21875,0.03125c0.290894,0.001709 0.584229,-0.001953 0.875,0c7.146362,0.047363 14.209839,0.151489 21.21875,0.28125c2.759644,0.051147 5.511475,0.092651 8.25,0.15625c0.881836,0.020508 1.776611,0.040771 2.65625,0.0625c1.154907,0.028564 2.317505,0.062988 3.46875,0.09375c2.441528,0.065308 4.887939,0.143555 7.3125,0.21875c3.574585,0.110718 7.118042,0.243164 10.65625,0.375c2.292236,0.085449 4.566772,0.155884 6.84375,0.25c3.149048,0.130127 6.286255,0.290894 9.40625,0.4375c0.07251,0.003418 0.146362,-0.003418 0.21875,0c3.75769,0.177124 7.50293,0.361816 11.21875,0.5625c2.640137,0.142578 5.255859,0.283203 7.875,0.4375c1.070679,0.06311 2.151489,0.122559 3.21875,0.1875c3.679443,0.224121 7.330688,0.471924 10.96875,0.71875c6.817139,0.46228 13.545898,0.960083 20.21875,1.5c4.01416,0.324829 8.006226,0.647949 11.96875,1c6.348022,0.563965 12.658081,1.180786 18.875,1.8125c36.696899,43.91626 91.86853,71.875 153.53125,71.875c33.555542,0 65.18811,-8.283203 92.96875,-22.90625c0.864014,0.2677 1.702637,0.543701 2.5625,0.8125c1.489746,0.465454 2.991455,0.937866 4.46875,1.40625c2.346191,0.743896 4.653442,1.499023 6.96875,2.25c0.040649,0.013184 0.084351,0.018066 0.125,0.03125c1.594849,0.517578 3.200928,1.041748 4.78125,1.5625c1.869141,0.615967 3.713745,1.223511 5.5625,1.84375c3.504883,1.175781 7.004883,2.372559 10.4375,3.5625c4.521484,1.567383 8.977051,3.129883 13.375,4.71875c4.397949,1.588867 8.754517,3.205811 13.03125,4.8125c4.276733,1.606689 8.467407,3.222534 12.625,4.84375c4.157593,1.621216 8.271973,3.24292 12.3125,4.875c3.299194,1.332642 6.527466,2.662231 9.75,4c0.360107,0.149536 0.734497,0.287842 1.09375,0.4375c0.724854,0.301758 1.435303,0.604248 2.15625,0.90625c3.559204,1.490723 7.096436,3.006104 10.5625,4.5c0.536133,0.231201 1.091064,0.456299 1.625,0.6875c2.22522,0.963379 4.406494,1.911499 6.59375,2.875c2.77063,1.220459 5.508423,2.436768 8.21875,3.65625c1.710327,0.769653 3.438354,1.574951 5.125,2.34375c3.081299,1.404541 6.121704,2.787476 9.125,4.1875c0.705811,0.329102 1.423462,0.671387 2.125,1c3.487305,1.633911 6.929321,3.282471 10.3125,4.90625c2.648193,1.27124 5.320679,2.549316 7.90625,3.8125c0.693604,0.338867 1.404541,0.692993 2.09375,1.03125c0.350952,0.172241 0.681396,0.359131 1.03125,0.53125c6.189941,3.044556 12.22644,6.055176 18.0625,9.03125c2.859741,1.458374 5.660156,2.874878 8.4375,4.3125c2.518555,1.303711 5.047852,2.621704 7.5,3.90625c3.57666,1.873657 7.092529,3.735352 10.53125,5.5625c4.000244,2.12561 7.930664,4.227905 11.75,6.28125c1.490234,0.80127 3.067871,1.648315 4.53125,2.4375c5.31604,2.866821 10.27771,5.561523 15.25,8.25c4.860474,2.62793 9.732544,5.257568 14.28125,7.6875c5.367798,2.867432 10.541138,5.574707 15.5,8.125c1.400391,0.720337 2.787109,1.463501 4.15625,2.15625c0.802124,0.40564 1.645874,0.822754 2.4375,1.21875c2.720337,1.360718 5.401245,2.665894 8,3.90625c0.944458,0.450806 1.883545,0.909546 2.8125,1.34375c1.312622,0.613403 2.624146,1.202026 3.90625,1.78125c0.257324,0.116333 0.525024,0.228882 0.78125,0.34375c0.041748,0.018799 0.083252,0.043823 0.125,0.0625c1.714478,0.767944 3.370239,1.484253 5.03125,2.1875c0.064575,0.027344 0.123047,0.066528 0.1875,0.09375c0.170898,0.072144 0.32959,0.147217 0.5,0.21875c0.879395,0.369019 1.760376,0.712402 2.625,1.0625c0.80896,0.327515 1.641235,0.658203 2.4375,0.96875c0.52124,0.203247 1.015381,0.397949 1.53125,0.59375c1.149048,0.436401 2.283325,0.850952 3.40625,1.25c1.269897,0.451294 2.512695,0.879272 3.75,1.28125c0.40271,0.130859 0.819458,0.28064 1.21875,0.40625c0.049683,0.015625 0.106567,0.015747 0.15625,0.03125c0.796265,0.249146 1.592041,0.491089 2.375,0.71875c0.447632,0.130127 0.900391,0.252075 1.34375,0.375c0.684448,0.189819 1.356812,0.389893 2.03125,0.5625c0.312256,0.079834 0.627319,0.142578 0.9375,0.21875c0.104614,0.025757 0.208008,0.068481 0.3125,0.09375c0.805664,0.195068 1.614868,0.361938 2.40625,0.53125c0.858887,0.183716 1.688721,0.347168 2.53125,0.5c0.618774,0.112183 1.233521,0.217285 1.84375,0.3125c0.742554,0.115845 1.488647,0.222168 2.21875,0.3125c0.334717,0.041382 0.667847,0.089111 1,0.125c0.379883,0.041138 0.748535,0.091064 1.125,0.125c0.030396,0.002808 0.063354,-0.002686 0.09375,0c0.849609,0.075195 1.698364,0.118164 2.53125,0.15625c0.083496,0.003906 0.166626,0.027832 0.25,0.03125c0.15564,0.006348 0.313599,-0.005127 0.46875,0c0.769653,0.025269 1.525635,0.03894 2.28125,0.03125c0.858643,-0.008789 1.721313,-0.041626 2.5625,-0.09375c0.04126,-0.002563 0.083862,0.002686 0.125,0c0.052124,-0.003418 0.104126,0.00354 0.15625,0c0.803345,-0.054565 1.58728,-0.154785 2.375,-0.25c0.123169,-0.014893 0.252197,-0.015381 0.375,-0.03125c0.336914,-0.043579 0.665894,-0.105103 1,-0.15625c0.43396,-0.066284 0.851807,-0.139526 1.28125,-0.21875c0.846924,-0.15625 1.701782,-0.323853 2.53125,-0.53125c2.34375,-0.625 4.659058,-1.272461 6.96875,-1.9375c191.440674,-55.119873 266.070068,-247.184326 261.625,-498.40625c2.525146,-154.239258 -22.8573,-328.224121 -68.59375,-499.65625c-3.083862,-18.503601 -13.512085,-36.136902 -29.1875,-52.65625c1.760376,-18.667694 -1.840942,-38.372101 -10.8125,-47.34375c-84.916748,-56.884308 -164.030151,-92.997803 -246.625,-103.96875c-12.178711,-33.678528 -24.148926,-67.352722 -43.375,-101.03125c-40.98584,-21.320877 -79.19104,-18.5448 -115,5c-1.653564,36.416687 2.260132,71.447296 7.1875,106.21875c-16.046631,11.237427 -27.147461,33.78125 -42.1875,33.78125c0.523682,0.810303 1.02417,1.621613 1.53125,2.4375c-81.346191,31.672546 -217.700073,77.5625 -481.53125,77.5625c-256.041077,0 -403.924622,-43.844788 -483,-75.1875c0.97113,-1.616211 1.968384,-3.216431 3,-4.8125c-15.040039,0 -26.14093,-22.543823 -42.1875,-33.78125c4.927368,-34.771454 8.841064,-69.802063 7.1875,-106.21875c-20.142517,-13.243958 -41.053925,-19.928604 -62.78125,-19.4375z" id="path3307" stroke-miterlimit="4" stroke-linejoin="bevel" stroke-linecap="round" stroke-width="20" stroke="#595959" fill="#ffffff"/>
  <path id="path3271" d="m1728.800049,410c-19.812378,-48.333344 -32.407959,-96.666656 -60,-145c-40.98584,-21.320877 -79.191162,-18.5448 -115,5c-2.506958,55.210052 7.784912,107.220428 15,160l160,-20z" stroke-miterlimit="4" stroke-linejoin="bevel" stroke-linecap="round" stroke-width="0.667" fill="#ffffff"/>
  <path d="m348.799988,410c19.812286,-48.333344 32.407837,-96.666656 60,-145c40.985748,-21.320877 79.191071,-18.5448 115,5c2.506897,55.210052 -7.784973,107.220428 -15,160l-160,-20z" id="path3269" stroke-miterlimit="4" stroke-linejoin="bevel" stroke-linecap="round" stroke-width="0.667" fill="#ffffff"/>
  <path d="m1998.800049,570c120.36084,451.143127 100,920 -200,1000c-80,20 -240,-200 -760,-200c-520.000122,0 -680.000122,220 -760.000122,200c-299.999996,-80 -320.360806,-548.856873 -200.000015,-1000c20,-120 369.337021,-202.688721 419.999985,-180c50.662994,22.688721 199.999969,100 540.000153,100c340,0 468.349854,-76.228638 540,-100c71.649902,-23.771362 400,60 420,180z" id="path2386" stroke-miterlimit="4" stroke-linejoin="bevel" stroke-linecap="round" stroke-width="0.667" fill="#ececec"/>
  <path id="path3189" d="m78.799988,630c-120.360878,451.143066 -99.999998,860 200,940c80,20 240,-200 760.000061,-200c520,0 680,220 760,200c300,-80 320.36084,-488.856934 200,-940c-40,-120 -369.337036,-142.688721 -420,-120c-50.663086,22.688721 -200,140 -540,140c-340.000061,0 -468.349976,-116.228638 -540.000061,-140c-71.650055,-23.771362 -334.846558,-7.341431 -420,120z" stroke-miterlimit="4" stroke-linejoin="bevel" stroke-linecap="round" stroke-width="0.667" fill="#d5d5d5"/>
  <path id="path3163" d="m898.799988,1250a200,200 0 1 1 -400,0a200,200 0 1 1 400,0z" stroke-miterlimit="4" stroke-linejoin="bevel" stroke-linecap="round" stroke-width="0.667" fill="#ececec"/>
  <path d="m1518.800049,1250a160,160 0 1 1 -320,0a160,160 0 1 1 320,0z" id="path3173" stroke-miterlimit="4" stroke-linejoin="bevel" stroke-linecap="round" stroke-width="0.667" fill-opacity="0.669767" fill="#606060"/>
  <path d="m1558.800049,1250a200,200 0 1 1 -400,0a200,200 0 1 1 400,0z" id="path3165" stroke-miterlimit="4" stroke-linejoin="bevel" stroke-linecap="round" stroke-width="0.667" fill="#ececec"/>
  <path id="path3167" d="m518.799988,930a200,200 0 1 1 -400,0a200,200 0 1 1 400,0z" stroke-miterlimit="4" stroke-linejoin="bevel" stroke-linecap="round" stroke-width="0.667" fill="#ececec"/>
  <path d="m458.799988,930a140,140 0 1 1 -280,0a140,140 0 1 1 280,0z" id="path3169" stroke-miterlimit="4" stroke-linejoin="bevel" stroke-linecap="round" stroke-width="0.667" fill="#7d7d7d"/>
  <path id="path3171" d="m858.799988,1250a160,160 0 1 1 -320,0a160,160 0 1 1 320,0z" stroke-miterlimit="4" stroke-linejoin="bevel" stroke-linecap="round" stroke-width="0.667" fill="#7d7d7d"/>
  <path id="path3175" d="m1178.800049,890.000061a130,130 0 1 1 -260.000061,0a130,130 0 1 1 260.000061,0z" stroke-miterlimit="4" stroke-linejoin="bevel" stroke-linecap="round" stroke-width="0.667" fill="#3fbf00"/>
  <rect id="rect3177" width="120" height="85" x="728.79999" y="865" ry="40" rx="40" stroke-miterlimit="4" stroke-linejoin="bevel" stroke-linecap="round" stroke-width="0.667" fill="#f7f7f7"/>
  <rect rx="40" ry="40" y="865" x="1237.6814" height="85" width="120" id="rect3179" stroke-miterlimit="4" stroke-linejoin="bevel" stroke-linecap="round" stroke-width="0.667" fill="#f7f7f7"/>
  <path id="path3181" d="m1668.800049,860a85,85 0 1 1 -170,0a85,85 0 1 1 170,0z" stroke-miterlimit="4" stroke-linejoin="bevel" stroke-linecap="round" stroke-width="0.667" fill="#0b3aa0"/>
  <path d="m1853.800049,705a85,85 0 1 1 -170,0a85,85 0 1 1 170,0z" id="path3183" stroke-miterlimit="4" stroke-linejoin="bevel" stroke-linecap="round" stroke-width="0.667" fill="#b79200"/>
  <path id="path3185" d="m2008.800049,860a85,85 0 1 1 -170,0a85,85 0 1 1 170,0z" stroke-miterlimit="4" stroke-linejoin="bevel" stroke-linecap="round" stroke-width="0.667" fill="#a52204"/>
  <path d="m1853.800049,1025a85,85 0 1 1 -170,0a85,85 0 1 1 170,0z" id="path3187" stroke-miterlimit="4" stroke-linejoin="bevel" stroke-linecap="round" stroke-width="0.667" fill="#19a004"/>
  <path d="m1558.800049,470c-19.495972,-17.945801 -27.000977,-39.88858 -40,-60c20,0 33.047241,-39.87674 60,-40c135,-25 250.799194,13.450653 380,100c15,15 15,60 0,80c-145,-110 -235,-95 -400,-80z" id="path3191" stroke-miterlimit="4" stroke-linejoin="bevel" stroke-linecap="round" stroke-width="20" stroke="#595959" fill="#ffffff"/>
  <path id="path3197" d="m518.799927,470c19.495911,-17.945801 27.000916,-39.88858 40,-60c-20,0 -33.047302,-39.87674 -59.999969,-40c-135,-25 -250.79921,13.450653 -380,100c-15,15 -15,60 0,80c145,-110 235,-95 399.999969,-80z" stroke-miterlimit="4" stroke-linejoin="bevel" stroke-linecap="round" stroke-width="20" stroke="#595959" fill="#ffffff"/>
  <path id="path3277" d="m328.799988,820a10,10 0 1 1 -20,0a10,10 0 1 1 20,0z" stroke-miterlimit="4" stroke-linejoin="bevel" stroke-linecap="round" stroke-width="0.667" fill="#545454"/>
  <path d="m328.799988,1040a10,10 0 1 1 -20,0a10,10 0 1 1 20,0z" id="path3279" stroke-miterlimit="4" stroke-linejoin="bevel" stroke-linecap="round" stroke-width="0.667" fill="#545454"/>
  <path id="path3281" d="m438.799988,930a10,10 0 1 1 -20,0a10,10 0 1 1 20,0z" stroke-miterlimit="4" stroke-linejoin="bevel" stroke-linecap="round" stroke-width="0.667" fill="#545454"/>
  <path d="m218.799988,930a10,10 0 1 1 -20,0a10,10 0 1 1 20,0z" id="path3283" stroke-miterlimit="4" stroke-linejoin="bevel" stroke-linecap="round" stroke-width="0.667" fill="#545454"/>
  <path id="path3285" d="m1498.799927,1250a140,140 0 1 1 -280,0a140,140 0 1 1 280,0z" stroke-miterlimit="4" stroke-linejoin="bevel" stroke-linecap="round" stroke-width="0.667" fill="#7d7d7d"/>
  <path d="m1368.800049,1140a10,10 0 1 1 -20,0a10,10 0 1 1 20,0z" id="path3287" stroke-miterlimit="4" stroke-linejoin="bevel" stroke-linecap="round" stroke-width="0.667" fill="#545454"/>
  <path id="path3289" d="m1368.800049,1360a10,10 0 1 1 -20,0a10,10 0 1 1 20,0z" stroke-miterlimit="4" stroke-linejoin="bevel" stroke-linecap="round" stroke-width="0.667" fill="#545454"/>
  <path d="m1478.800049,1250a10,10 0 1 1 -20,0a10,10 0 1 1 20,0z" id="path3291" stroke-miterlimit="4" stroke-linejoin="bevel" stroke-linecap="round" stroke-width="0.667" fill="#545454"/>
  <path id="path3293" d="m1258.800049,1250a10,10 0 1 1 -20,0a10,10 0 1 1 20,0z" stroke-miterlimit="4" stroke-linejoin="bevel" stroke-linecap="round" stroke-width="0.667" fill="#545454"/>
  <path d="m518.799927,470c19.495911,-17.945801 27.000916,-39.88858 40,-60c-20,0 -33.047302,-39.87674 -59.999969,-40c-135,-25 -250.79921,13.450653 -380,100c-15,15 -15,60 0,80c145,-110 235,-95 399.999969,-80z" id="path3331" stroke-miterlimit="4" stroke-linejoin="bevel" stroke-linecap="round" stroke-width="20" fill="#ffffff"/>
  <path id="path3333" d="m1558.800049,470c-19.495972,-17.945801 -27.000977,-39.88858 -40,-60c20,0 33.047241,-39.87674 60,-40c135,-25 250.799194,13.450653 380,100c15,15 15,60 0,80c-145,-110 -235,-95 -400,-80z" stroke-miterlimit="4" stroke-linejoin="bevel" stroke-linecap="round" stroke-width="20" fill="#ffffff"/>
  <path d="m803.799988,885l-40,25l40,25l0,-50z" id="path3335" stroke-miterlimit="4" stroke-linejoin="bevel" stroke-linecap="round" stroke-width="20" fill="#d1d1d1"/>
  <path id="path3339" d="m1283.800049,885l40,25l-40,25l0,-50z" stroke-miterlimit="4" stroke-linejoin="bevel" stroke-linecap="round" stroke-width="20" fill="#d1d1d1"/>
  <path d="m1048.800049,760c-71.760071,0 -130.000061,58.23999 -130.000061,130c0,71.76001 58.23999,130 130.000061,130c71.76001,0 130,-58.23999 130,-130c0,-71.76001 -58.23999,-130 -130,-130zm-75.000061,25l75.000061,50l75,-50l-55,85l70,110l-90,-80l-90.000061,80l70.000061,-110l-55.000061,-85z" id="path3341" stroke-miterlimit="4" stroke-linejoin="bevel" stroke-linecap="round" stroke-width="0.667" fill="#567b44"/>
  <path d="m698.799988,1090c-90,0 -45,65 -70,90c-25,25 -90,-20 -90,70c0,90 65,45 90,70c25,25 -20,90 70,90c90,0 45,-65 70,-90c25,-25 90,20 90,-70c0,-90 -65,-45 -90,-70c-25,-25 20,-90 -70,-90z" id="path3353" stroke-miterlimit="4" stroke-linejoin="bevel" stroke-linecap="round" stroke-width="20" fill="#545454"/>
  <path d="m1538.800049,790l30,70l-30,70l30,0l15,-35l15,35l30,0l-30,-70l30,-70l-30,0l-15,35l-15,-35l-30,0z" id="path3363" stroke-miterlimit="4" stroke-linejoin="bevel" stroke-linecap="round" stroke-width="20" fill-opacity="0.386047" fill="#ffffff"/>
  <path d="m1758.800049,950l-35,140l30,0l6.4375,-45l17.125,0l6.4375,45l30,0l-35,-140l-20,0zm10,35l5.71875,40l-11.437622,0l5.718872,-40z" id="path3371" stroke-miterlimit="4" stroke-linejoin="bevel" stroke-linecap="round" stroke-width="20" fill-opacity="0.386047" fill="#ffffff"/>
  <path id="path3376" d="m1723.800049,635l30,70l0,70l30,0l0,-70l30,-70l-30,0l-15,35l-15,-35l-30,0z" stroke-miterlimit="4" stroke-linejoin="bevel" stroke-linecap="round" stroke-width="20" fill-opacity="0.386047" fill="#ffffff"/>
  <path d="m1893.800049,790l0,140l37.5,0l0,-0.093811c0.823975,0.054199 1.662354,0.093811 2.5,0.093811c20.699951,0 37.5,-16.799988 37.5,-37.5c0,-13.895325 -7.574097,-26.021362 -18.8125,-32.5c11.238403,-6.478638 18.8125,-18.604675 18.8125,-32.5c0,-20.700012 -16.800049,-37.5 -37.5,-37.5c-0.837646,0 -1.676025,0.039612 -2.5,0.09375l0,-0.09375l-37.5,0zm17.5,20l22.5,0l2.5,0l0,0.15625c11.25,1.23999 13.75,5.765076 13.75,17.34375c0,11.578674 -2.5,16.10376 -13.75,17.34375l0,0.15625l-2.5,0l-22.5,0l0,-17.5l0,-17.5zm0,65l22.5,0l2.5,0l0,0.15625c11.25,1.23999 13.75,5.765076 13.75,17.34375c0,11.578674 -2.5,16.103699 -13.75,17.343811l0,0.156189l-2.5,0l-22.5,0l0,-17.5l0,-17.5z" id="path3378" stroke-miterlimit="4" stroke-linejoin="bevel" stroke-linecap="round" stroke-width="20" fill-opacity="0.386047" fill="#ffffff"/>
 </g>
</svg>