<?xml version="1.0" encoding="UTF-8" standalone="no"?>
<svg
   xmlns:dc="http://purl.org/dc/elements/1.1/"
   xmlns:cc="http://creativecommons.org/ns#"
   xmlns:rdf="http://www.w3.org/1999/02/22-rdf-syntax-ns#"
   xmlns:svg="http://www.w3.org/2000/svg"
   xmlns="http://www.w3.org/2000/svg"
   xmlns:sodipodi="http://sodipodi.sourceforge.net/DTD/sodipodi-0.dtd"
   xmlns:inkscape="http://www.inkscape.org/namespaces/inkscape"
   width="800"
   height="600"
   viewBox="0 0 22577.777 16933.333"
   version="1.1"
   xml:space="preserve"
   id="svg2"
   inkscape:version="0.48.4 r9939"
   sodipodi:docname="test.svg"
   inkscape:export-filename="/home/oberstet/Schreibtisch/test.png"
   inkscape:export-xdpi="90"
   inkscape:export-ydpi="90"
   style="stroke-width:28.22200012;stroke-linejoin:round"><metadata
     id="metadata270"><rdf:RDF><cc:Work
         rdf:about=""><dc:format>image/svg+xml</dc:format><dc:type
           rdf:resource="http://purl.org/dc/dcmitype/StillImage" /><dc:title /></cc:Work></rdf:RDF></metadata><defs
     id="defs268" /><sodipodi:namedview
     pagecolor="#ffffff"
     bordercolor="#666666"
     borderopacity="1"
     objecttolerance="10"
     gridtolerance="10"
     guidetolerance="10"
     inkscape:pageopacity="0"
     inkscape:pageshadow="2"
     inkscape:window-width="1559"
     inkscape:window-height="876"
     id="namedview266"
     showgrid="false"
     inkscape:zoom="0.765796"
     inkscape:cx="381.131"
     inkscape:cy="234.8411"
     inkscape:window-x="41"
     inkscape:window-y="24"
     inkscape:window-maximized="1"
     inkscape:current-layer="svg2" /><path
     d="m 11326.556,16854.625 -11261.849107,0 0,-16618.39012 22523.697107,0 0,16618.39012 -11261.848,0 z"
     id="path4"
     inkscape:connector-curvature="0"
     style="fill:#ffffff;stroke:none" /><path
     d="m 12516.015,11779.394 -9065.4364,0 0,-8480.1767 18130.8734,0 0,8480.1767 -9065.437,0 z"
     id="path6"
     inkscape:connector-curvature="0"
     style="fill:none;stroke:#b3b3b3;stroke-width:28.22199821;stroke-linejoin:round" /><path
     d="m 21581.452,11778.043 -18130.8734,0"
     id="path8"
     inkscape:connector-curvature="0"
     style="fill:none;stroke:#b3b3b3;stroke-width:28.22199821;stroke-linejoin:round" /><path
     d="m 21581.452,10565.623 -18130.8734,0"
     id="path10"
     inkscape:connector-curvature="0"
     style="fill:none;stroke:#b3b3b3;stroke-width:28.22199821;stroke-linejoin:round" /><path
     d="m 21581.452,9354.5561 -18130.8734,0"
     id="path12"
     inkscape:connector-curvature="0"
     style="fill:none;stroke:#b3b3b3;stroke-width:28.22199821;stroke-linejoin:round" /><path
     d="m 21581.452,8143.4884 -18130.8734,0"
     id="path14"
     inkscape:connector-curvature="0"
     style="fill:none;stroke:#b3b3b3;stroke-width:28.22199821;stroke-linejoin:round" /><path
     d="m 21581.452,6932.4205 -18130.8734,0"
     id="path16"
     inkscape:connector-curvature="0"
     style="fill:none;stroke:#b3b3b3;stroke-width:28.22199821;stroke-linejoin:round" /><path
     d="m 21581.452,5720.0011 -18130.8734,0"
     id="path18"
     inkscape:connector-curvature="0"
     style="fill:none;stroke:#b3b3b3;stroke-width:28.22199821;stroke-linejoin:round" /><path
     d="m 21581.452,4508.9334 -18130.8734,0"
     id="path20"
     inkscape:connector-curvature="0"
     style="fill:none;stroke:#b3b3b3;stroke-width:28.22199821;stroke-linejoin:round" /><path
     d="m 21581.452,3297.8657 -18130.8734,0"
     id="path22"
     inkscape:connector-curvature="0"
     style="fill:none;stroke:#b3b3b3;stroke-width:28.22199821;stroke-linejoin:round" /><path
     d="m 3450.5786,11980.788 0,-202.745"
     id="path24"
     inkscape:connector-curvature="0"
     style="fill:none;stroke:#b3b3b3;stroke-width:28.22199821;stroke-linejoin:round" /><path
     d="m 3450.5786,11980.788 0,-202.745"
     id="path26"
     inkscape:connector-curvature="0"
     style="fill:none;stroke:#b3b3b3;stroke-width:28.22199821;stroke-linejoin:round" /><path
     d="m 6040.3172,11980.788 0,-202.745"
     id="path28"
     inkscape:connector-curvature="0"
     style="fill:none;stroke:#b3b3b3;stroke-width:28.22199821;stroke-linejoin:round" /><path
     d="m 6040.3172,11980.788 0,-202.745"
     id="path30"
     inkscape:connector-curvature="0"
     style="fill:none;stroke:#b3b3b3;stroke-width:28.22199821;stroke-linejoin:round" /><path
     d="m 8630.0558,11980.788 0,-202.745"
     id="path32"
     inkscape:connector-curvature="0"
     style="fill:none;stroke:#b3b3b3;stroke-width:28.22199821;stroke-linejoin:round" /><path
     d="m 8630.0558,11980.788 0,-202.745"
     id="path34"
     inkscape:connector-curvature="0"
     style="fill:none;stroke:#b3b3b3;stroke-width:28.22199821;stroke-linejoin:round" /><path
     d="m 11219.794,11980.788 0,-202.745"
     id="path36"
     inkscape:connector-curvature="0"
     style="fill:none;stroke:#b3b3b3;stroke-width:28.22199821;stroke-linejoin:round" /><path
     d="m 11219.794,11980.788 0,-202.745"
     id="path38"
     inkscape:connector-curvature="0"
     style="fill:none;stroke:#b3b3b3;stroke-width:28.22199821;stroke-linejoin:round" /><path
     d="m 13809.533,11980.788 0,-202.745"
     id="path40"
     inkscape:connector-curvature="0"
     style="fill:none;stroke:#b3b3b3;stroke-width:28.22199821;stroke-linejoin:round" /><path
     d="m 13809.533,11980.788 0,-202.745"
     id="path42"
     inkscape:connector-curvature="0"
     style="fill:none;stroke:#b3b3b3;stroke-width:28.22199821;stroke-linejoin:round" /><path
     d="m 16400.623,11980.788 0,-202.745"
     id="path44"
     inkscape:connector-curvature="0"
     style="fill:none;stroke:#b3b3b3;stroke-width:28.22199821;stroke-linejoin:round" /><path
     d="m 16400.623,11980.788 0,-202.745"
     id="path46"
     inkscape:connector-curvature="0"
     style="fill:none;stroke:#b3b3b3;stroke-width:28.22199821;stroke-linejoin:round" /><path
     d="m 18990.362,11980.788 0,-202.745"
     id="path48"
     inkscape:connector-curvature="0"
     style="fill:none;stroke:#b3b3b3;stroke-width:28.22199821;stroke-linejoin:round" /><path
     d="m 18990.362,11980.788 0,-202.745"
     id="path50"
     inkscape:connector-curvature="0"
     style="fill:none;stroke:#b3b3b3;stroke-width:28.22199821;stroke-linejoin:round" /><path
     d="m 21581.452,11980.788 0,-202.745"
     id="path52"
     inkscape:connector-curvature="0"
     style="fill:none;stroke:#b3b3b3;stroke-width:28.22199821;stroke-linejoin:round" /><path
     d="m 21581.452,11980.788 0,-202.745"
     id="path54"
     inkscape:connector-curvature="0"
     style="fill:none;stroke:#b3b3b3;stroke-width:28.22199821;stroke-linejoin:round" /><path
     d="m 3450.5786,11778.043 18130.8734,0"
     id="path56"
     inkscape:connector-curvature="0"
     style="fill:none;stroke:#b3b3b3;stroke-width:28.22199821;stroke-linejoin:round" /><path
     d="m 3247.8329,11778.043 202.7457,0"
     id="path58"
     inkscape:connector-curvature="0"
     style="fill:none;stroke:#b3b3b3;stroke-width:28.22199821;stroke-linejoin:round" /><path
     d="m 3247.8329,11778.043 202.7457,0"
     id="path60"
     inkscape:connector-curvature="0"
     style="fill:none;stroke:#b3b3b3;stroke-width:28.22199821;stroke-linejoin:round" /><path
     d="m 3247.8329,10565.623 202.7457,0"
     id="path62"
     inkscape:connector-curvature="0"
     style="fill:none;stroke:#b3b3b3;stroke-width:28.22199821;stroke-linejoin:round" /><path
     d="m 3247.8329,10565.623 202.7457,0"
     id="path64"
     inkscape:connector-curvature="0"
     style="fill:none;stroke:#b3b3b3;stroke-width:28.22199821;stroke-linejoin:round" /><path
     d="m 3247.8329,9354.5561 202.7457,0"
     id="path66"
     inkscape:connector-curvature="0"
     style="fill:none;stroke:#b3b3b3;stroke-width:28.22199821;stroke-linejoin:round" /><path
     d="m 3247.8329,9354.5561 202.7457,0"
     id="path68"
     inkscape:connector-curvature="0"
     style="fill:none;stroke:#b3b3b3;stroke-width:28.22199821;stroke-linejoin:round" /><path
     d="m 3247.8329,8143.4884 202.7457,0"
     id="path70"
     inkscape:connector-curvature="0"
     style="fill:none;stroke:#b3b3b3;stroke-width:28.22199821;stroke-linejoin:round" /><path
     d="m 3247.8329,8143.4884 202.7457,0"
     id="path72"
     inkscape:connector-curvature="0"
     style="fill:none;stroke:#b3b3b3;stroke-width:28.22199821;stroke-linejoin:round" /><path
     d="m 3247.8329,6932.4205 202.7457,0"
     id="path74"
     inkscape:connector-curvature="0"
     style="fill:none;stroke:#b3b3b3;stroke-width:28.22199821;stroke-linejoin:round" /><path
     d="m 3247.8329,6932.4205 202.7457,0"
     id="path76"
     inkscape:connector-curvature="0"
     style="fill:none;stroke:#b3b3b3;stroke-width:28.22199821;stroke-linejoin:round" /><path
     d="m 3247.8329,5720.0011 202.7457,0"
     id="path78"
     inkscape:connector-curvature="0"
     style="fill:none;stroke:#b3b3b3;stroke-width:28.22199821;stroke-linejoin:round" /><path
     d="m 3247.8329,5720.0011 202.7457,0"
     id="path80"
     inkscape:connector-curvature="0"
     style="fill:none;stroke:#b3b3b3;stroke-width:28.22199821;stroke-linejoin:round" /><path
     d="m 3247.8329,4508.9334 202.7457,0"
     id="path82"
     inkscape:connector-curvature="0"
     style="fill:none;stroke:#b3b3b3;stroke-width:28.22199821;stroke-linejoin:round" /><path
     d="m 3247.8329,4508.9334 202.7457,0"
     id="path84"
     inkscape:connector-curvature="0"
     style="fill:none;stroke:#b3b3b3;stroke-width:28.22199821;stroke-linejoin:round" /><path
     d="m 3247.8329,3297.8657 202.7457,0"
     id="path86"
     inkscape:connector-curvature="0"
     style="fill:none;stroke:#b3b3b3;stroke-width:28.22199821;stroke-linejoin:round" /><path
     d="m 3247.8329,3297.8657 202.7457,0"
     id="path88"
     inkscape:connector-curvature="0"
     style="fill:none;stroke:#b3b3b3;stroke-width:28.22199821;stroke-linejoin:round" /><path
     d="m 3450.5786,11778.043 0,-8480.1773"
     id="path90"
     inkscape:connector-curvature="0"
     style="fill:none;stroke:#b3b3b3;stroke-width:28.22199821;stroke-linejoin:round" /><path
     d="m 19637.796,11778.043 1294.87,0 0,-7608.3708 -1294.87,0 0,7608.3708 z"
     id="path92"
     inkscape:connector-curvature="0"
     style="fill:#004586;stroke:none" /><path
     d="m 17048.058,11778.043 1294.869,0 0,-6252.6777 -1294.869,0 0,6252.6777 z"
     id="path94"
     inkscape:connector-curvature="0"
     style="fill:#004586;stroke:none" /><path
     d="m 14456.967,11778.043 1296.221,0 0,-3656.1808 -1296.221,0 0,3656.1808 z"
     id="path96"
     inkscape:connector-curvature="0"
     style="fill:#004586;stroke:none" /><path
     d="m 11867.229,11778.043 1294.869,0 0,-1809.8432 -1294.869,0 0,1809.8432 z"
     id="path98"
     inkscape:connector-curvature="0"
     style="fill:#004586;stroke:none" /><path
     d="m 9277.4905,11778.043 1296.2205,0 0,-1044.817 -1296.2205,0 0,1044.817 z"
     id="path100"
     inkscape:connector-curvature="0"
     style="fill:#004586;stroke:none" /><path
     d="m 6687.7519,11778.043 1294.8693,0 0,-504.161 -1294.8693,0 0,504.161 z"
     id="path102"
     inkscape:connector-curvature="0"
     style="fill:#004586;stroke:none" /><path
     d="m 4098.0133,11778.043 1294.8693,0 0,-248.702 -1294.8693,0 0,248.702 z"
     id="path104"
     inkscape:connector-curvature="0"
     style="fill:#004586;stroke:none" /><text
     class="TextShape"
     id="text106"
     style="font-size:16.2196579px"
     y="531.06256"
     x="-475.93005"><tspan
       class="TextParagraph"
       font-size="353px"
       font-weight="400"
       id="tspan108"
       style="font-size:477.12823486px;font-weight:400;font-family:'Liberation Sans, sans-serif'"><tspan
         class="TextPosition"
         x="4619.7456"
         y="12545.773"
         id="tspan110"><tspan
           id="tspan112"
           style="fill:#000000;stroke:none">1</tspan></tspan></tspan></text>
<text
     class="TextShape"
     id="text114"
     style="font-size:16.2196579px"
     y="531.06256"
     x="-475.93005"><tspan
       class="TextParagraph"
       font-size="353px"
       font-weight="400"
       id="tspan116"
       style="font-size:477.12823486px;font-weight:400;font-family:'Liberation Sans, sans-serif'"><tspan
         class="TextPosition"
         x="7209.4839"
         y="12545.773"
         id="tspan118"><tspan
           id="tspan120"
           style="fill:#000000;stroke:none">2</tspan></tspan></tspan></text>
<text
     class="TextShape"
     id="text122"
     style="font-size:16.2196579px"
     y="531.06256"
     x="-475.93005"><tspan
       class="TextParagraph"
       font-size="353px"
       font-weight="400"
       id="tspan124"
       style="font-size:477.12823486px;font-weight:400;font-family:'Liberation Sans, sans-serif'"><tspan
         class="TextPosition"
         x="9800.5742"
         y="12545.773"
         id="tspan126"><tspan
           id="tspan128"
           style="fill:#000000;stroke:none">4</tspan></tspan></tspan></text>
<text
     class="TextShape"
     id="text130"
     style="font-size:16.2196579px"
     y="531.06256"
     x="-475.93005"><tspan
       class="TextParagraph"
       font-size="353px"
       font-weight="400"
       id="tspan132"
       style="font-size:477.12823486px;font-weight:400;font-family:'Liberation Sans, sans-serif'"><tspan
         class="TextPosition"
         x="12390.312"
         y="12545.773"
         id="tspan134"><tspan
           id="tspan136"
           style="fill:#000000;stroke:none">8</tspan></tspan></tspan></text>
<text
     class="TextShape"
     id="text138"
     style="font-size:16.2196579px"
     y="531.06256"
     x="-475.93005"><tspan
       class="TextParagraph"
       font-size="353px"
       font-weight="400"
       id="tspan140"
       style="font-size:477.12823486px;font-weight:400;font-family:'Liberation Sans, sans-serif'"><tspan
         class="TextPosition"
         x="14855.701"
         y="12545.773"
         id="tspan142"><tspan
           id="tspan144"
           style="fill:#000000;stroke:none">16</tspan></tspan></tspan></text>
<text
     class="TextShape"
     id="text146"
     style="font-size:16.2196579px"
     y="531.06256"
     x="-475.93005"><tspan
       class="TextParagraph"
       font-size="353px"
       font-weight="400"
       id="tspan148"
       style="font-size:477.12823486px;font-weight:400;font-family:'Liberation Sans, sans-serif'"><tspan
         class="TextPosition"
         x="17446.793"
         y="12545.773"
         id="tspan150"><tspan
           id="tspan152"
           style="fill:#000000;stroke:none">32</tspan></tspan></tspan></text>
<text
     class="TextShape"
     id="text154"
     style="font-size:16.2196579px"
     y="531.06256"
     x="-475.93005"><tspan
       class="TextParagraph"
       font-size="353px"
       font-weight="400"
       id="tspan156"
       style="font-size:477.12823486px;font-weight:400;font-family:'Liberation Sans, sans-serif'"><tspan
         class="TextPosition"
         x="20036.531"
         y="12545.773"
         id="tspan158"><tspan
           id="tspan160"
           style="fill:#000000;stroke:none">40</tspan></tspan></tspan></text>
<text
     class="TextShape"
     id="text162"
     style="font-size:16.2196579px"
     y="531.06256"
     x="-475.93005"><tspan
       class="TextParagraph"
       font-size="353px"
       font-weight="400"
       id="tspan164"
       style="font-size:477.12823486px;font-weight:400;font-family:'Liberation Sans, sans-serif'"><tspan
         class="TextPosition"
         x="2862.616"
         y="11941.591"
         id="tspan166"><tspan
           id="tspan168"
           style="fill:#000000;stroke:none">0</tspan></tspan></tspan></text>
<text
     class="TextShape"
     id="text170"
     style="font-size:16.2196579px"
     y="531.06256"
     x="-475.93005"><tspan
       class="TextParagraph"
       font-size="353px"
       font-weight="400"
       id="tspan172"
       style="font-size:477.12823486px;font-weight:400;font-family:'Liberation Sans, sans-serif'"><tspan
         class="TextPosition"
         x="1467.7256"
         y="10729.172"
         id="tspan174"><tspan
           id="tspan176"
           style="fill:#000000;stroke:none">100.000</tspan></tspan></tspan></text>
<text
     class="TextShape"
     id="text178"
     style="font-size:16.2196579px"
     y="531.06256"
     x="-475.93005"><tspan
       class="TextParagraph"
       font-size="353px"
       font-weight="400"
       id="tspan180"
       style="font-size:477.12823486px;font-weight:400;font-family:'Liberation Sans, sans-serif'"><tspan
         class="TextPosition"
         x="1467.7256"
         y="9518.1035"
         id="tspan182"><tspan
           id="tspan184"
           style="fill:#000000;stroke:none">200.000</tspan></tspan></tspan></text>
<text
     class="TextShape"
     id="text186"
     style="font-size:16.2196579px"
     y="531.06256"
     x="-475.93005"><tspan
       class="TextParagraph"
       font-size="353px"
       font-weight="400"
       id="tspan188"
       style="font-size:477.12823486px;font-weight:400;font-family:'Liberation Sans, sans-serif'"><tspan
         class="TextPosition"
         x="1467.7256"
         y="8305.6846"
         id="tspan190"><tspan
           id="tspan192"
           style="fill:#000000;stroke:none">300.000</tspan></tspan></tspan></text>
<text
     class="TextShape"
     id="text194"
     style="font-size:16.2196579px"
     y="531.06256"
     x="-475.93005"><tspan
       class="TextParagraph"
       font-size="353px"
       font-weight="400"
       id="tspan196"
       style="font-size:477.12823486px;font-weight:400;font-family:'Liberation Sans, sans-serif'"><tspan
         class="TextPosition"
         x="1467.7256"
         y="7094.6172"
         id="tspan198"><tspan
           id="tspan200"
           style="fill:#000000;stroke:none">400.000</tspan></tspan></tspan></text>
<text
     class="TextShape"
     id="text202"
     style="font-size:16.2196579px"
     y="531.06256"
     x="-475.93005"><tspan
       class="TextParagraph"
       font-size="353px"
       font-weight="400"
       id="tspan204"
       style="font-size:477.12823486px;font-weight:400;font-family:'Liberation Sans, sans-serif'"><tspan
         class="TextPosition"
         x="1467.7256"
         y="5882.1978"
         id="tspan206"><tspan
           id="tspan208"
           style="fill:#000000;stroke:none">500.000</tspan></tspan></tspan></text>
<text
     class="TextShape"
     id="text210"
     style="font-size:16.2196579px"
     y="531.06256"
     x="-475.93005"><tspan
       class="TextParagraph"
       font-size="353px"
       font-weight="400"
       id="tspan212"
       style="font-size:477.12823486px;font-weight:400;font-family:'Liberation Sans, sans-serif'"><tspan
         class="TextPosition"
         x="1467.7256"
         y="4671.1304"
         id="tspan214"><tspan
           id="tspan216"
           style="fill:#000000;stroke:none">600.000</tspan></tspan></tspan></text>
<text
     class="TextShape"
     id="text218"
     style="font-size:16.2196579px"
     y="531.06256"
     x="-475.93005"><tspan
       class="TextParagraph"
       font-size="353px"
       font-weight="400"
       id="tspan220"
       style="font-size:477.12823486px;font-weight:400;font-family:'Liberation Sans, sans-serif'"><tspan
         class="TextPosition"
         x="1467.7256"
         y="3460.0625"
         id="tspan222"><tspan
           id="tspan224"
           style="fill:#000000;stroke:none">700.000</tspan></tspan></tspan></text>
<text
     class="TextShape"
     id="text226"
     x="-6323.0254"
     y="160.50406"
     style="font-size:16.2196579px"><tspan
       class="TextParagraph"
       font-size="459px"
       font-weight="400"
       id="tspan228"
       style="font-size:620.4019165px;font-weight:400;font-family:'Liberation Sans, sans-serif'"><tspan
         class="TextPosition"
         x="902.83173"
         y="1433.7472"
         id="tspan230"><tspan
           id="tspan232"
           style="fill:#000000;stroke:none">Crossbar.io Web Performance</tspan></tspan></tspan></text>
<text
     class="TextShape"
     id="text234"
     style="font-size:16.2196579px"
     y="531.06256"
     x="-475.93005"><tspan
       class="TextParagraph"
       font-size="318px"
       font-weight="400"
       id="tspan236"
       style="font-size:429.82092285px;font-weight:400;font-family:'Liberation Sans, sans-serif'"><tspan
         class="TextPosition"
         x="9950.6064"
         y="13508.138"
         id="tspan238"><tspan
           id="tspan240"
           style="fill:#000000;stroke:none">number of cores</tspan></tspan></tspan></text>
<text
     class="TextShape"
     id="text242"
     x="-10916.244"
     y="-8236.8564"
     transform="matrix(0,-1,1,0,0,0)"
     style="font-size:16.2196579px"><tspan
       class="TextParagraph"
       font-size="318px"
       font-weight="400"
       id="tspan244"
       style="font-size:429.82092285px;font-weight:400;font-family:'Liberation Sans, sans-serif'"><tspan
         class="TextPosition"
         x="-9659.2217"
         y="897.51385"
         transform="matrix(0,-1,1,0,-5828,7688)"
         id="tspan246"><tspan
           id="tspan248"
           style="fill:#000000;stroke:none">HTTP requests/sec</tspan></tspan></tspan></text>
<text
     class="TextShape"
     id="text250"
     style="font-size:16.2196579px"
     y="273.08847"
     x="371.69922"><tspan
       class="TextParagraph"
       font-size="282px"
       font-weight="400"
       id="tspan252"
       style="font-size:381.16195679px;font-weight:400;font-family:'Liberation Sans, sans-serif'"><tspan
         class="TextPosition"
         x="1148.8911"
         y="14473.398"
         id="tspan254"><tspan
           id="tspan256"
           style="fill:#000000;stroke:none">Crossbar.io is serving HTTP requests rendered from a Twisted Web resource that returns a dynamically generated 16 </tspan></tspan><tspan
         class="TextPosition"
         x="1148.8911"
         y="14938.362"
         id="tspan258"><tspan
           id="tspan260"
           style="fill:#000000;stroke:none">byte body. The load generator is wrk connecting over loopback TCP. Both Crossbar.io and wrk run on a 48 core Intel </tspan></tspan><tspan
         class="TextPosition"
         x="1148.8911"
         y="15403.325"
         id="tspan262"><tspan
           id="tspan264"
           style="fill:#000000;stroke:none">Xeon machine under Ubuntu 15.04. With 40 cores used for Crossbar.io, the machine is at 90% total CPU, including wrk.</tspan></tspan></tspan></text>
<g
     transform="matrix(9.5277274,0,0,9.5277274,13122.751,-1848.7278)"
     id="layer1"
     inkscape:label="Ebene 1"><path
       inkscape:connector-curvature="0"
       id="rect4296-4-3-5-2"
       d="m 396.29941,281.6228 521.68688,0 c 4.35287,0 7.85715,3.82286 7.85715,8.57143 l 0,118.62164 c 0,4.74857 -3.50428,8.57143 -7.85715,8.57143 l -521.68688,0 c -4.35286,0 -7.85715,-3.82286 -7.85715,-8.57143 l 0,-118.62164 c 0,-4.74857 3.50429,-8.57143 7.85715,-8.57143 z"
       style="fill:#333333;fill-opacity:1;stroke:none" /><path
       id="path6-3"
       d="m 413.79364,299.50806 0,20.8299 27.4786,-0.15373 18.2549,18.25499 -7.1097,7.10984 -15.4495,-15.41105 -23.1743,0.0384 0,37.20174 23.9813,0 46.925,-47.15552 27.4785,0 0,-20.7146 -98.3848,0 z m 75.2106,30.66838 -47.1171,47.04021 -28.0935,0 0,20.67619 98.3848,0 0,-20.75309 -28.1703,0 -17.6401,-17.64004 7.1099,-7.10984 14.8729,14.87301 23.8276,0 0,-37.08644 -23.1742,0 z"
       style="fill:#ffde00;fill-opacity:1"
       inkscape:connector-curvature="0" /><g
       transform="translate(-2691.1516,-458.51718)"
       id="g3911"><path
         inkscape:connector-curvature="0"
         id="path2996"
         style="font-size:72.20912933px;font-style:normal;font-variant:normal;font-weight:bold;font-stretch:normal;line-height:125%;letter-spacing:0px;word-spacing:0px;fill:#ffffff;fill-opacity:1;stroke:none;font-family:Play;-inkscape-font-specification:Sans Bold"
         d="m 3257.0306,832.12739 c -5.2946,1.05922 -10.349,1.58883 -15.1632,1.58883 -1.9261,0 -3.7433,-0.0845 -5.4519,-0.25342 -1.7086,-0.16895 -3.6099,-0.52998 -5.7041,-1.0831 -2.0942,-0.55311 -3.8755,-1.29904 -5.3439,-2.2378 -1.4683,-0.93875 -2.7079,-2.26277 -3.7186,-3.97208 -1.0108,-1.70928 -1.5161,-3.71937 -1.5161,-6.03028 l 0,-20.57986 c 0,-9.43451 7.2448,-14.15178 21.7346,-14.15183 3.5625,5e-5 8.5207,0.52966 14.8746,1.58883 l 0,8.44879 c -5.7281,-1.3486 -10.6378,-2.02291 -14.7292,-2.02295 -1.6366,4e-5 -2.9724,0.0482 -4.0073,0.14434 -1.035,0.0963 -2.1185,0.33683 -3.2504,0.72169 -1.132,0.38494 -1.9745,0.99866 -2.5276,1.84115 -0.5531,0.84256 -0.8297,1.93814 -0.8297,3.28674 l 0,19.92979 c 0,4.23542 3.8747,6.35312 11.6243,6.35312 3.4185,0 8.0881,-0.69782 14.0085,-2.09347 z" /><path
         inkscape:connector-curvature="0"
         id="path2998"
         style="font-size:72.20912933px;font-style:normal;font-variant:normal;font-weight:bold;font-stretch:normal;line-height:125%;letter-spacing:0px;word-spacing:0px;fill:#ffffff;fill-opacity:1;stroke:none;font-family:Play;-inkscape-font-specification:Sans Bold"
         d="m 3286.7579,806.06044 -3.6118,0 c -2.8883,2e-5 -5.0666,0.44516 -6.5349,1.33541 -1.4684,0.8903 -2.2026,2.41889 -2.2026,4.58579 l 0,21.01178 -10.5422,0 0,-34.94985 10.0376,0 0,6.13936 c 0.048,-1.73351 1.0474,-3.31021 2.9969,-4.73013 1.9495,-1.41985 3.9835,-2.12979 6.1019,-2.12983 l 3.7551,0 z" /><path
         inkscape:connector-curvature="0"
         id="path3000"
         style="font-size:72.20912933px;font-style:normal;font-variant:normal;font-weight:bold;font-stretch:normal;line-height:125%;letter-spacing:0px;word-spacing:0px;fill:#ffffff;fill-opacity:1;stroke:none;font-family:Play;-inkscape-font-specification:Sans Bold"
         d="m 3327.0119,810.68149 0,10.32629 c -10e-5,2.26242 -0.3611,4.19979 -1.0831,5.81212 -0.7221,1.61234 -1.6127,2.86364 -2.6719,3.75391 -1.0593,0.89028 -2.4432,1.57635 -4.1517,2.05821 -1.7086,0.48187 -3.2728,0.78303 -4.6927,0.9035 -1.4199,0.12046 -3.1409,0.1807 -5.1631,0.1807 -2.0223,0 -3.7433,-0.0602 -5.1632,-0.1807 -1.4199,-0.12047 -2.9845,-0.42163 -4.6937,-0.9035 -1.7093,-0.48186 -3.0936,-1.16793 -4.1528,-2.05821 -1.0592,-0.89027 -1.9499,-2.14157 -2.6719,-3.75391 -0.7221,-1.61233 -1.0831,-3.5497 -1.0831,-5.81212 l 0,-10.32629 c 0,-2.40783 0.3731,-4.46604 1.1194,-6.17462 0.7463,-1.70854 1.6612,-3.02007 2.7447,-3.93462 1.0834,-0.91448 2.4916,-1.62479 4.2244,-2.13093 1.7328,-0.50606 3.2852,-0.81898 4.6574,-0.93875 1.3721,-0.11969 3.045,-0.17956 5.0188,-0.1796 1.9737,4e-5 3.6466,0.0599 5.0188,0.1796 1.3721,0.11977 2.9246,0.43269 4.6574,0.93875 1.7328,0.50614 3.1405,1.21645 4.2233,2.13093 1.0827,0.91455 1.9972,2.22608 2.7435,3.93462 0.7463,1.70858 1.1194,3.76679 1.1195,6.17462 z m -10.5423,11.55372 0,-13.21527 c 0,-1.87749 -0.4815,-3.21326 -1.4444,-4.00734 -0.9631,-0.79402 -2.8887,-1.19104 -5.7769,-1.19107 -2.8883,3e-5 -4.8135,0.39705 -5.7758,1.19107 -0.9623,0.79408 -1.4434,2.12985 -1.4434,4.00734 l 0,13.21527 c 0,1.82904 0.469,3.10458 1.4071,3.82664 0.938,0.72206 2.8753,1.08309 5.8121,1.08309 2.9367,0 4.8744,-0.36103 5.8132,-1.08309 0.9387,-0.72206 1.4081,-1.9976 1.4081,-3.82664 z" /><path
         inkscape:connector-curvature="0"
         id="path3002"
         style="font-size:72.20912933px;font-style:normal;font-variant:normal;font-weight:bold;font-stretch:normal;line-height:125%;letter-spacing:0px;word-spacing:0px;fill:#ffffff;fill-opacity:1;stroke:none;font-family:Play;-inkscape-font-specification:Sans Bold"
         d="m 3365.3399,819.34623 0,4.40509 c 0,1.73208 -0.3247,3.22394 -0.974,4.47561 -0.6493,1.25168 -1.4676,2.22679 -2.4548,2.92534 -0.9873,0.69856 -2.2753,1.24029 -3.8641,1.62519 -1.5889,0.38491 -3.1171,0.63759 -4.5847,0.75806 -1.4677,0.12046 -3.1887,0.1807 -5.1632,0.1807 -3.8035,0 -8.401,-0.3614 -13.7926,-1.0842 l 0,-7.00319 c 6.6917,1.01075 11.3378,1.51611 13.9381,1.51611 2.0699,0 3.6705,-0.20457 4.8017,-0.61372 1.1312,-0.40913 1.6968,-1.2153 1.6968,-2.4185 l 0,-2.16839 c 0,-1.10622 -0.3129,-1.93626 -0.9387,-2.49012 -0.6259,-0.55384 -1.9738,-0.83076 -4.0437,-0.83078 l -4.5506,0 c -3.658,2e-5 -6.5099,-0.73416 -8.5556,-2.20254 -2.0457,-1.46835 -3.0686,-3.62241 -3.0686,-6.4622 l 0,-4.25965 c 0,-3.17763 1.5165,-5.36805 4.5494,-6.57128 3.033,-1.20316 7.3172,-1.80475 12.8528,-1.80479 2.3109,4e-5 6.4508,0.21673 12.4198,0.65008 l 0,6.71451 c -7.5101,-0.57732 -11.7462,-0.866 -12.7085,-0.86603 -2.9367,3e-5 -4.7903,0.2046 -5.5609,0.61372 -0.7705,0.40917 -1.1558,1.1911 -1.1558,2.34578 l 0,1.87751 c 0,0.57738 0.3012,1.10699 0.9035,1.58883 0.6023,0.48188 1.5293,0.72282 2.781,0.72279 l 4.6211,0 c 8.5677,3e-5 12.8516,2.79205 12.8516,8.37607 z" /><path
         inkscape:connector-curvature="0"
         id="path3004"
         style="font-size:72.20912933px;font-style:normal;font-variant:normal;font-weight:bold;font-stretch:normal;line-height:125%;letter-spacing:0px;word-spacing:0px;fill:#ffffff;fill-opacity:1;stroke:none;font-family:Play;-inkscape-font-specification:Sans Bold"
         d="m 3403.2779,819.34623 0,4.40509 c 0,1.73208 -0.3247,3.22394 -0.974,4.47561 -0.6494,1.25168 -1.4676,2.22679 -2.4548,2.92534 -0.9873,0.69856 -2.2753,1.24029 -3.8641,1.62519 -1.5889,0.38491 -3.1171,0.63759 -4.5847,0.75806 -1.4677,0.12046 -3.1887,0.1807 -5.1632,0.1807 -3.8035,0 -8.401,-0.3614 -13.7926,-1.0842 l 0,-7.00319 c 6.6917,1.01075 11.3377,1.51611 13.9381,1.51611 2.0699,0 3.6705,-0.20457 4.8017,-0.61372 1.1312,-0.40913 1.6968,-1.2153 1.6968,-2.4185 l 0,-2.16839 c 0,-1.10622 -0.3129,-1.93626 -0.9387,-2.49012 -0.6259,-0.55384 -1.9738,-0.83076 -4.0437,-0.83078 l -4.5506,0 c -3.658,2e-5 -6.5099,-0.73416 -8.5556,-2.20254 -2.0457,-1.46835 -3.0686,-3.62241 -3.0686,-6.4622 l 0,-4.25965 c 0,-3.17763 1.5165,-5.36805 4.5494,-6.57128 3.033,-1.20316 7.3172,-1.80475 12.8528,-1.80479 2.3109,4e-5 6.4508,0.21673 12.4198,0.65008 l 0,6.71451 c -7.5101,-0.57732 -11.7462,-0.866 -12.7085,-0.86603 -2.9367,3e-5 -4.7903,0.2046 -5.5609,0.61372 -0.7705,0.40917 -1.1558,1.1911 -1.1558,2.34578 l 0,1.87751 c 0,0.57738 0.3012,1.10699 0.9035,1.58883 0.6023,0.48188 1.5293,0.72282 2.781,0.72279 l 4.6211,0 c 8.5677,3e-5 12.8516,2.79205 12.8516,8.37607 z" /><path
         inkscape:connector-curvature="0"
         id="path3006"
         style="font-size:72.20912933px;font-style:normal;font-variant:normal;font-weight:bold;font-stretch:normal;line-height:125%;letter-spacing:0px;word-spacing:0px;fill:#ffffff;fill-opacity:1;stroke:none;font-family:Play;-inkscape-font-specification:Sans Bold"
         d="m 3446.9212,809.09266 0,11.481 c -1e-4,4.76576 -1.4321,8.14763 -4.296,10.1456 -2.8641,1.99797 -7.4737,2.99696 -13.829,2.99696 -6.6903,0 -11.3114,-1.0471 -13.8632,-3.1413 -2.5518,-2.0942 -3.8277,-5.42795 -3.8277,-10.00126 l 0,-38.12751 10.5422,0 0,19.06375 c 0.6259,-1.58806 1.7934,-2.6829 3.5027,-3.28453 1.7093,-0.60156 4.321,-0.90236 7.8351,-0.9024 2.9837,4e-5 5.4143,0.2406 7.2919,0.7217 1.8775,0.48116 3.2977,1.26346 4.2607,2.34688 0.963,1.08349 1.6009,2.27493 1.9139,3.57432 0.3129,1.29945 0.4693,3.00837 0.4694,5.12679 z m -10.5423,12.85167 0,-12.92439 c 0,-2.26239 -0.4213,-3.69439 -1.2638,-4.29602 -0.8425,-0.60156 -2.9246,-0.90236 -6.2462,-0.90239 -2.9852,3e-5 -4.9351,0.38493 -5.8496,1.15471 -0.9145,0.76984 -1.3718,2.11773 -1.3718,4.0437 l 0,12.92439 c 0,2.07144 0.4455,3.45606 1.3366,4.15388 0.891,0.69782 2.8768,1.04673 5.9575,1.04673 3.0807,0 5.0904,-0.34891 6.0292,-1.04673 0.9387,-0.69782 1.4081,-2.08244 1.4081,-4.15388 z" /><path
         inkscape:connector-curvature="0"
         id="path3008"
         style="font-size:72.20912933px;font-style:normal;font-variant:normal;font-weight:bold;font-stretch:normal;line-height:125%;letter-spacing:0px;word-spacing:0px;fill:#ffffff;fill-opacity:1;stroke:none;font-family:Play;-inkscape-font-specification:Sans Bold"
         d="m 3486.5912,832.99342 -10.3263,0 0,-3.17766 c -0.7698,1.39565 -1.8768,2.39463 -3.3208,2.99696 -1.4442,0.60233 -4.0922,0.9035 -7.9442,0.9035 -4.7173,0 -7.8461,-0.72207 -9.3864,-2.16619 -1.5404,-1.44412 -2.3106,-4.45283 -2.3106,-9.02614 0,-4.13991 0.7945,-7.0164 2.3833,-8.62949 1.5888,-1.61304 4.4289,-2.41958 8.5204,-2.4196 l 11.8424,0 0,-2.38214 c 0,-2.11842 -0.4937,-3.52655 -1.4809,-4.2244 -0.9872,-0.69779 -3.0689,-1.0467 -6.2451,-1.04673 -2.9852,3e-5 -7.0774,0.28871 -12.2765,0.86603 l 0,-6.64399 c 3.9959,-0.48036 8.4488,-0.72056 13.3585,-0.7206 6.4508,4e-5 10.9278,0.78233 13.4312,2.34689 2.5033,1.56462 3.755,4.65707 3.755,9.27736 z m -10.5422,-8.95342 0,-6.78724 -7.2214,0 c -2.3109,2e-5 -3.755,0.26446 -4.3323,0.79332 -0.5774,0.52889 -0.8661,1.94877 -0.8661,4.25965 0,2.26242 0.3008,3.63455 0.9024,4.11641 0.6016,0.48187 2.1298,0.7228 4.5847,0.7228 1.2032,0 2.0938,-0.0121 2.6719,-0.0364 0.5781,-0.0242 1.2039,-0.0845 1.8775,-0.1807 0.6736,-0.0962 1.143,-0.25268 1.4082,-0.46938 0.2651,-0.21668 0.4939,-0.51748 0.6864,-0.90239 0.1924,-0.3849 0.2887,-0.89027 0.2887,-1.51611 z" /><path
         inkscape:connector-curvature="0"
         id="path3010"
         style="font-size:72.20912933px;font-style:normal;font-variant:normal;font-weight:bold;font-stretch:normal;line-height:125%;letter-spacing:0px;word-spacing:0px;fill:#ffffff;fill-opacity:1;stroke:none;font-family:Play;-inkscape-font-specification:Sans Bold"
         d="m 3518.7579,806.06044 -3.6118,0 c -2.8882,2e-5 -5.0665,0.44516 -6.5349,1.33541 -1.4684,0.8903 -2.2026,2.41889 -2.2025,4.58579 l 0,21.01178 -10.5423,0 0,-34.94985 10.0376,0 0,6.13936 c 0.048,-1.73351 1.0475,-3.31021 2.997,-4.73013 1.9495,-1.41985 3.9834,-2.12979 6.1019,-2.12983 l 3.755,0 z" /><path
         inkscape:connector-curvature="0"
         id="path3012"
         style="font-size:72.20912933px;font-style:normal;font-variant:normal;font-weight:normal;font-stretch:normal;line-height:125%;letter-spacing:0px;word-spacing:0px;fill:#ffffff;fill-opacity:1;stroke:none;font-family:Play;-inkscape-font-specification:Play"
         d="m 3533.3064,832.99342 -8.3761,0 0,-7.79871 8.3761,0 z" /><path
         inkscape:connector-curvature="0"
         id="path3014"
         style="font-size:72.20912933px;font-style:normal;font-variant:normal;font-weight:normal;font-stretch:normal;line-height:125%;letter-spacing:0px;word-spacing:0px;fill:#ffffff;fill-opacity:1;stroke:none;font-family:Play;-inkscape-font-specification:Play"
         d="m 3550.4816,792.19509 -6.4986,0 0,-6.78724 6.4986,0 z m 0,40.79833 -6.4986,0 0,-34.94985 6.4986,0 z" /><path
         inkscape:connector-curvature="0"
         id="path3016"
         style="font-size:72.20912933px;font-style:normal;font-variant:normal;font-weight:normal;font-stretch:normal;line-height:125%;letter-spacing:0px;word-spacing:0px;fill:#ffffff;fill-opacity:1;stroke:none;font-family:Play;-inkscape-font-specification:Play"
         d="m 3592.6594,809.81325 0,12.13108 c 0,2.16693 -0.2648,3.99669 -0.7944,5.48929 -0.5297,1.4926 -1.2036,2.64805 -2.0219,3.46633 -0.8183,0.81829 -1.9858,1.44413 -3.5027,1.87751 -1.5168,0.43339 -2.9613,0.69819 -4.3334,0.79442 -1.3722,0.0962 -3.1895,0.14434 -5.4518,0.14434 -2.8883,0 -5.1386,-0.0962 -6.7509,-0.28868 -1.6124,-0.19245 -3.2251,-0.66183 -4.8381,-1.40813 -1.6131,-0.7463 -2.7685,-1.93774 -3.4664,-3.57432 -0.6978,-1.63657 -1.0467,-3.80349 -1.0467,-6.50076 l 0,-12.13108 c 0,-2.3094 0.2769,-4.25852 0.8308,-5.84738 0.5538,-1.5888 1.2278,-2.8166 2.0218,-3.6834 0.7941,-0.86673 1.9613,-1.52856 3.5016,-1.98548 1.5403,-0.45686 2.9724,-0.73342 4.296,-0.82968 1.3237,-0.0962 3.1409,-0.1443 5.4518,-0.14434 2.3109,4e-5 4.1282,0.0481 5.4519,0.14434 1.3236,0.0963 2.756,0.37282 4.2971,0.82968 1.541,0.45692 2.7086,1.11875 3.5027,1.98548 0.794,0.8668 1.4679,2.0946 2.0218,3.6834 0.5538,1.58886 0.8308,3.53798 0.8308,5.84738 z m -6.644,13.06983 0,-14.15182 c 0,-3.22611 -0.6501,-5.22409 -1.9502,-5.99392 -1.3002,-0.76978 -3.8035,-1.15468 -7.51,-1.15472 -3.7066,4e-5 -6.2096,0.38494 -7.509,1.15472 -1.2994,0.76983 -1.9491,2.76781 -1.9491,5.99392 l 0,14.15182 c 0,1.5411 0.1682,2.76889 0.5046,3.6834 0.3364,0.91452 0.9623,1.57635 1.8775,1.98549 0.9153,0.40915 1.854,0.66183 2.8163,0.75805 0.9622,0.0962 2.3821,0.14435 4.2597,0.14434 1.8774,1e-5 3.2977,-0.0481 4.2607,-0.14434 0.963,-0.0962 1.9017,-0.3489 2.8163,-0.75805 0.9144,-0.40914 1.5403,-1.07097 1.8775,-1.98549 0.3371,-0.91451 0.5057,-2.1423 0.5057,-3.6834 z" /></g></g></svg>