<?xml version="1.0" encoding="UTF-8" standalone="no"?>
<svg viewBox="0 0 488.11938 330.82108" xmlns="http://www.w3.org/2000/svg">
<g transform="matrix(.27211,0,0,.27211,429.0965,280.99958)">
<path d="m-496.25005-876.40596-1043.34375,602.375-.062,17.65625 70.6563,40.8125 1058.65625-611.21875-85.9063-49.625zm282.3126,163-1058.68755,611.21875 125.8125,72.62499 1058.68745-611.21875-125.8124-72.625zm322.1874,186.03125-1058.6562,611.21879 70.5625,40.75001 30.46875.125 1028.18755-593.62504v-17.71875l-70.5626-40.75z" fill="#c8ab37" stroke="#000" stroke-linejoin="bevel"/>
<path d="m-410.34375-911.84346-125.8125,72.65625v85.03125l125.8125-72.625v-85.0625zm322.2187,186.03125-125.8124,72.625v85.03125l125.8124-72.625v-85.03125zm-788.6562,83.25-125.81255,72.65625v85.03125l125.81255-72.625v-85.0625zm1055.5938,88.59375-110.4688,63.78125v85.0625l110.4688-63.78125v-85.0625zm-733.37505,97.46875-125.8125,72.625v85.03125l125.8125-72.625v-85.03125zm-788.625,83.25-125.8125,72.625v85.0625l125.8125-72.65625v-85.03125zm1070.93745,79.71875-125.8124,72.65625v85.03125l125.8124-72.65625v-85.03125zm-748.74995,106.3125-125.8125,72.625v85.03124l125.8125-72.62499v-85.03125zm282.3125,162.96875-110.46875,63.78129v85.06251l110.46875-63.78131v-85.06249z" fill="#544300" stroke="#000" stroke-linejoin="bevel"/>
<path d="m-410.34375-826.78096-1058.65625,611.21875v21.25l1058.65625-611.21875v-21.25zm322.2187,186-1058.68745,611.21875v21.28125l1058.68745-611.21875v-21.28125zm266.9376,171.875-1027.9688,593.50004v21.25l1027.9688-593.50004v-21.25z" fill="#614d00" stroke="#000" stroke-linejoin="bevel"/>
<path d="m-622.0625-888.81221v85.0625l85.90625,49.59375v-85.03125l-85.90625-49.625zm282.31245,163v85.03125l125.8126,72.65625v-85.0625l-125.8126-72.625zm-748.74995,106.3125v85.03125l85.9062,49.59375v-85.03125l-85.9062-49.59375zm1070.93755,79.71875v85.03125l85.9062,49.625v-85.0625l-85.9062-49.59375zm-788.62505,83.25v85.0625l125.8125,72.625v-85.03125l-125.8125-72.65625zm322.18745,186.03125v85.03125l85.9376,49.625v-85.03125l-85.9376-49.625z" fill="#6b5500" stroke="#000" stroke-linejoin="bevel"/>
<path d="m-622.0625-910.06221v21.25l690.40625,398.625v-21.25l-690.40625-398.625zm-466.4375,269.28125v21.28125l690.43755,398.625v-21.28125l-690.43755-398.625z" fill="#836900" stroke="#000" stroke-linejoin="bevel"/>
<path d="m178.81255-575.21846-110.4688,63.78125v21.25l110.4688-63.78125v-21.25zm-451.0626,260.4375-125.8124,72.625v21.28125l125.8124-72.65625v-21.25zm-466.43745,269.28125-110.46875,63.78129v21.25l110.46875-63.78129v-21.25z" fill="#614d00" stroke="#000" stroke-linejoin="bevel"/>
<path d="m-496.25005-982.68721-125.81245,72.625 690.40625,398.625 110.4688-63.78125v-17.71875l-675.0626-389.75zm-466.43745,269.28125-125.8125,72.625 690.43755,398.625 125.8124-72.625-690.43745-398.625zm-466.4375,269.28125-110.4688,63.78125v17.71875l660.06255,381.09379 30.375-.1875 110.46875-63.78129-690.4375-398.625z" fill="#ad942f" stroke="#000" stroke-linejoin="bevel"/>
<path d="m-370.43745-931.31221-1058.68755,611.21875v21.25l1058.68755-611.21875v-21.25zm119.6562,69.09375-1058.65625,611.21875v21.25l1058.65625-611.21875v-21.25zm162.6562,93.875-1058.68745,611.25v21.25l1058.68745-611.21875v-21.28125zm122.7188,70.875-1058.65625,611.21875v21.28125l1058.65625-611.25v-21.25zm144.2188,101-1027.9688,593.5v21.25004l1027.9688-593.50004v-21.25z" fill="#6d5700" stroke="#000" stroke-linejoin="bevel"/>
<path d="m-879.83725,18.28488v21.2598l-659.74775-380.90546v-21.25985z" fill="#e5b900" stroke="#000" stroke-linejoin="bevel"/>
<path d="m-1539.5938-341.37471v85.0625l70.5938,40.75v-85.0625l-70.5938-40.75zm266.9688,154.15625v85.03125l125.8125,72.62499v-85.03124l-125.8125-72.625zm322.21875,186v85.06254l70.5625,40.75001v-85.06251l-70.5625-40.75004z" fill="#be9900" stroke="#000" stroke-linejoin="bevel"/>
<path d="m-1539.5938-256.31221v21.25l70.5938,40.75v-21.25l-70.5938-40.75zm266.9688,154.125v21.24999l125.8125,72.65625v-21.28125l-125.8125-72.62499zm322.21875,186.03129v21.25001l70.5625,40.75v-21.25l-70.5625-40.75001z" fill="#e5b900" stroke="#000" stroke-linejoin="bevel"/>
<path d="m-1539.5938-383.87471v21.25l110.4688,63.78125v-21.25l-110.4688-63.78125zm144.2188,83.25v21.28125l85.9375,49.59375v-21.25l-85.9375-49.625zm122.75,70.875v21.25l125.8125,72.65625v-21.25l-125.8125-72.65625zm162.6562,93.90625v21.25l85.9063,49.62499v-21.28125l-85.9063-49.59374zm119.6563,69.09374v21.25l110.46875,63.78129v-21.25004l-110.46875-63.78125z" fill="#cbaf41" stroke="#000" stroke-linejoin="bevel"/>
<path d="m-879.83725,18.28488h30.68594v21.2598h-30.68594z" fill="#a88600" stroke="#000" stroke-linejoin="bevel"/>
<path d="m-879.83725,39.54478h30.68594v85.0393h-30.68594z" fill="#a88600" stroke="#000" stroke-linejoin="bevel"/>
<path d="m-879.83725,124.58408h30.68594v21.2599h-30.68594z" fill="#a88600" stroke="#000" stroke-linejoin="bevel"/>
<path d="m-879.83725-2.96747h30.68594v21.25985h-30.68594z" fill="#a88600" stroke="#000" stroke-linejoin="bevel"/>
<path d="m-1146.8049-157.10883v21.25984l1058.66485-611.22047v-21.25984z" fill="none" stroke="#000" stroke-linejoin="bevel"/>
<path d="m-480.37495-995.40492-30.7812.062-1027.90635,593.43745 .2812,17.875 110.1875,63.625 1058.68765-611.21875-110.4688-63.7812zm144.2188,83.24995-1058.68765,611.21875 85.9375,49.625 1058.65635-611.21875-85.9063-49.625zm122.75,70.875-1058.68765,611.21875 125.8125,72.65625 1058.68755-611.25-125.8125-72.625zm162.625,93.90625-1058.65635,611.21875 85.9063,49.59374 1058.65625-611.21875-85.9062-49.59375zm119.6562,69.09375-1058.6563,611.21875 110.78125,63.93745 29.84375.1563 1028.8125-594-.3124-17.53125-110.4688-63.78125z" fill="#ffe680" stroke="#000" stroke-linejoin="bevel"/>
</g>
</svg>
